<svg width="67" height="24" viewBox="0 0 67 24" fill="none" xmlns="http://www.w3.org/2000/svg">
<path d="M3.68176 10.6169C3.10576 10.6169 2.60176 10.4849 2.16976 10.2209C1.74376 9.95094 1.41076 9.57594 1.17076 9.09594C0.936763 8.60994 0.819763 8.04594 0.819763 7.40394C0.819763 6.76194 0.936763 6.19794 1.17076 5.71194C1.41076 5.22594 1.74376 4.84794 2.16976 4.57794C2.60176 4.30194 3.10576 4.16394 3.68176 4.16394C4.18576 4.16394 4.62976 4.27494 5.01376 4.49694C5.39776 4.71894 5.73076 5.03094 6.01276 5.43294L5.33776 6.36894C5.11576 5.99694 4.87576 5.72094 4.61776 5.54094C4.36576 5.35494 4.06876 5.26194 3.72676 5.26194C3.39676 5.26194 3.10276 5.35194 2.84476 5.53194C2.58676 5.70594 2.38576 5.95194 2.24176 6.26994C2.09776 6.58794 2.02576 6.96294 2.02576 7.39494C2.02576 7.82094 2.09776 8.19594 2.24176 8.51994C2.39176 8.83794 2.59876 9.08394 2.86276 9.25794C3.12676 9.43194 3.43276 9.51894 3.78076 9.51894C4.12276 9.51894 4.41976 9.43794 4.67176 9.27594C4.92376 9.10794 5.16376 8.83194 5.39176 8.44794L6.04876 9.38394C5.77276 9.76194 5.43376 10.0619 5.03176 10.2839C4.63576 10.5059 4.18576 10.6169 3.68176 10.6169Z" fill="black" fill-opacity="0.94"/>
<path d="M9.93876 10.6169C9.35676 10.6169 8.84376 10.4819 8.39976 10.2119C7.95576 9.93594 7.60776 9.55494 7.35576 9.06894C7.10976 8.58294 6.98676 8.02494 6.98676 7.39494C6.98676 6.76494 7.10976 6.20694 7.35576 5.72094C7.60776 5.23494 7.95576 4.85394 8.39976 4.57794C8.84376 4.30194 9.35676 4.16394 9.93876 4.16394C10.5208 4.16394 11.0338 4.30194 11.4778 4.57794C11.9218 4.85394 12.2698 5.23494 12.5218 5.72094C12.7738 6.20694 12.8998 6.76494 12.8998 7.39494C12.8998 8.02494 12.7738 8.58294 12.5218 9.06894C12.2698 9.55494 11.9218 9.93594 11.4778 10.2119C11.0338 10.4819 10.5208 10.6169 9.93876 10.6169ZM9.93876 9.52794C10.2928 9.52794 10.5988 9.43794 10.8568 9.25794C11.1208 9.07794 11.3248 8.82894 11.4688 8.51094C11.6128 8.18694 11.6848 7.81494 11.6848 7.39494C11.6848 6.97494 11.6128 6.60594 11.4688 6.28794C11.3248 5.96394 11.1208 5.71194 10.8568 5.53194C10.5988 5.34594 10.2928 5.25294 9.93876 5.25294C9.58476 5.25294 9.27576 5.34594 9.01176 5.53194C8.75376 5.71194 8.55276 5.96394 8.40876 6.28794C8.27076 6.60594 8.20176 6.97494 8.20176 7.39494C8.20176 7.81494 8.27076 8.18694 8.40876 8.51094C8.55276 8.82894 8.75376 9.07794 9.01176 9.25794C9.27576 9.43794 9.58476 9.52794 9.93876 9.52794Z" fill="black" fill-opacity="0.94"/>
<path d="M14.3839 10.4999V4.28994H15.5809L18.3079 8.69994V4.28994H19.4239V10.4999H18.2269L15.4999 6.08994V10.4999H14.3839Z" fill="black" fill-opacity="0.94"/>
<path d="M22.5766 10.4999V5.36994H20.7856V4.28994H25.5466V5.36994H23.7466V10.4999H22.5766Z" fill="black" fill-opacity="0.94"/>
<path d="M26.9024 10.4999V4.28994H28.9364C29.6624 4.28994 30.2414 4.46994 30.6734 4.82994C31.1114 5.18994 31.3304 5.69094 31.3304 6.33294C31.3304 6.73494 31.2404 7.08594 31.0604 7.38594C30.8804 7.68594 30.6224 7.91994 30.2864 8.08794L32.1044 10.4999H30.7184L29.1794 8.36694C29.0774 8.37294 28.9724 8.37594 28.8644 8.37594H28.0634V10.4999H26.9024ZM28.8824 5.30694H28.0634V7.35894H28.8824C29.2784 7.35894 29.5874 7.27794 29.8094 7.11594C30.0314 6.95394 30.1424 6.69294 30.1424 6.33294C30.1424 5.98494 30.0314 5.72694 29.8094 5.55894C29.5874 5.39094 29.2784 5.30694 28.8824 5.30694Z" fill="black" fill-opacity="0.94"/>
<path d="M33.2364 10.4999V4.28994H34.4154V10.4999H33.2364Z" fill="black" fill-opacity="0.94"/>
<path d="M36.2657 10.4999V4.28994H38.4527C39.1307 4.28994 39.6617 4.43094 40.0457 4.71294C40.4297 4.99494 40.6217 5.38794 40.6217 5.89194C40.6217 6.24594 40.5407 6.53094 40.3787 6.74694C40.2227 6.95694 39.9827 7.12194 39.6587 7.24194C40.0607 7.36194 40.3667 7.54494 40.5767 7.79094C40.7927 8.03694 40.9007 8.34894 40.9007 8.72694C40.9007 9.29094 40.6997 9.72894 40.2977 10.0409C39.9017 10.3469 39.3497 10.4999 38.6417 10.4999H36.2657ZM38.4077 5.25294H37.4177V6.82794H38.4077C38.7317 6.82794 38.9867 6.76794 39.1727 6.64794C39.3587 6.52194 39.4517 6.31494 39.4517 6.02694C39.4517 5.74494 39.3557 5.54694 39.1637 5.43294C38.9777 5.31294 38.7257 5.25294 38.4077 5.25294ZM38.5967 7.74594H37.4177V9.53694H38.5967C38.9567 9.53694 39.2327 9.46194 39.4247 9.31194C39.6227 9.16194 39.7217 8.93394 39.7217 8.62794C39.7217 8.32794 39.6197 8.10594 39.4157 7.96194C39.2177 7.81794 38.9447 7.74594 38.5967 7.74594Z" fill="black" fill-opacity="0.94"/>
<path d="M44.6668 10.6169C44.1808 10.6169 43.7518 10.5209 43.3798 10.3289C43.0138 10.1309 42.7258 9.83394 42.5158 9.43794C42.3058 9.04194 42.2008 8.54094 42.2008 7.93494V4.28994H43.3798V7.96194C43.3798 8.53794 43.4998 8.94294 43.7398 9.17694C43.9858 9.41094 44.2948 9.52794 44.6668 9.52794C45.0388 9.52794 45.3418 9.41094 45.5758 9.17694C45.8158 8.94294 45.9358 8.53794 45.9358 7.96194V4.28994H47.1058V7.93494C47.1058 8.54094 47.0008 9.04194 46.7908 9.43794C46.5868 9.83394 46.3018 10.1309 45.9358 10.3289C45.5698 10.5209 45.1468 10.6169 44.6668 10.6169Z" fill="black" fill-opacity="0.94"/>
<path d="M50.1156 10.4999V5.36994H48.3246V4.28994H53.0856V5.36994H51.2856V10.4999H50.1156Z" fill="black" fill-opacity="0.94"/>
<path d="M56.761 10.6169C56.179 10.6169 55.666 10.4819 55.222 10.2119C54.778 9.93594 54.43 9.55494 54.178 9.06894C53.932 8.58294 53.809 8.02494 53.809 7.39494C53.809 6.76494 53.932 6.20694 54.178 5.72094C54.43 5.23494 54.778 4.85394 55.222 4.57794C55.666 4.30194 56.179 4.16394 56.761 4.16394C57.343 4.16394 57.856 4.30194 58.3 4.57794C58.744 4.85394 59.092 5.23494 59.344 5.72094C59.596 6.20694 59.722 6.76494 59.722 7.39494C59.722 8.02494 59.596 8.58294 59.344 9.06894C59.092 9.55494 58.744 9.93594 58.3 10.2119C57.856 10.4819 57.343 10.6169 56.761 10.6169ZM56.761 9.52794C57.115 9.52794 57.421 9.43794 57.679 9.25794C57.943 9.07794 58.147 8.82894 58.291 8.51094C58.435 8.18694 58.507 7.81494 58.507 7.39494C58.507 6.97494 58.435 6.60594 58.291 6.28794C58.147 5.96394 57.943 5.71194 57.679 5.53194C57.421 5.34594 57.115 5.25294 56.761 5.25294C56.407 5.25294 56.098 5.34594 55.834 5.53194C55.576 5.71194 55.375 5.96394 55.231 6.28794C55.093 6.60594 55.024 6.97494 55.024 7.39494C55.024 7.81494 55.093 8.18694 55.231 8.51094C55.375 8.82894 55.576 9.07794 55.834 9.25794C56.098 9.43794 56.407 9.52794 56.761 9.52794Z" fill="black" fill-opacity="0.94"/>
<path d="M61.2061 10.4999V4.28994H63.2401C63.9661 4.28994 64.5451 4.46994 64.9771 4.82994C65.4151 5.18994 65.6341 5.69094 65.6341 6.33294C65.6341 6.73494 65.5441 7.08594 65.3641 7.38594C65.1841 7.68594 64.9261 7.91994 64.5901 8.08794L66.4081 10.4999H65.0221L63.4831 8.36694C63.3811 8.37294 63.2761 8.37594 63.1681 8.37594H62.3671V10.4999H61.2061ZM63.1861 5.30694H62.3671V7.35894H63.1861C63.5821 7.35894 63.8911 7.27794 64.1131 7.11594C64.3351 6.95394 64.4461 6.69294 64.4461 6.33294C64.4461 5.98494 64.3351 5.72694 64.1131 5.55894C63.8911 5.39094 63.5821 5.30694 63.1861 5.30694Z" fill="black" fill-opacity="0.94"/>
<path d="M3.68176 20.3669C3.10576 20.3669 2.60176 20.2349 2.16976 19.9709C1.74376 19.7009 1.41076 19.3259 1.17076 18.8459C0.936763 18.3599 0.819763 17.7959 0.819763 17.1539C0.819763 16.5119 0.936763 15.9479 1.17076 15.4619C1.41076 14.9759 1.74376 14.5979 2.16976 14.3279C2.60176 14.0519 3.10576 13.9139 3.68176 13.9139C4.18576 13.9139 4.62976 14.0249 5.01376 14.2469C5.39776 14.4689 5.73076 14.7809 6.01276 15.1829L5.33776 16.1189C5.11576 15.7469 4.87576 15.4709 4.61776 15.2909C4.36576 15.1049 4.06876 15.0119 3.72676 15.0119C3.39676 15.0119 3.10276 15.1019 2.84476 15.2819C2.58676 15.4559 2.38576 15.7019 2.24176 16.0199C2.09776 16.3379 2.02576 16.7129 2.02576 17.1449C2.02576 17.5709 2.09776 17.9459 2.24176 18.2699C2.39176 18.5879 2.59876 18.8339 2.86276 19.0079C3.12676 19.1819 3.43276 19.2689 3.78076 19.2689C4.12276 19.2689 4.41976 19.1879 4.67176 19.0259C4.92376 18.8579 5.16376 18.5819 5.39176 18.1979L6.04876 19.1339C5.77276 19.5119 5.43376 19.8119 5.03176 20.0339C4.63576 20.2559 4.18576 20.3669 3.68176 20.3669Z" fill="black" fill-opacity="0.94"/>
<path d="M9.93876 20.3669C9.35676 20.3669 8.84376 20.2319 8.39976 19.9619C7.95576 19.6859 7.60776 19.3049 7.35576 18.8189C7.10976 18.3329 6.98676 17.7749 6.98676 17.1449C6.98676 16.5149 7.10976 15.9569 7.35576 15.4709C7.60776 14.9849 7.95576 14.6039 8.39976 14.3279C8.84376 14.0519 9.35676 13.9139 9.93876 13.9139C10.5208 13.9139 11.0338 14.0519 11.4778 14.3279C11.9218 14.6039 12.2698 14.9849 12.5218 15.4709C12.7738 15.9569 12.8998 16.5149 12.8998 17.1449C12.8998 17.7749 12.7738 18.3329 12.5218 18.8189C12.2698 19.3049 11.9218 19.6859 11.4778 19.9619C11.0338 20.2319 10.5208 20.3669 9.93876 20.3669ZM9.93876 19.2779C10.2928 19.2779 10.5988 19.1879 10.8568 19.0079C11.1208 18.8279 11.3248 18.5789 11.4688 18.2609C11.6128 17.9369 11.6848 17.5649 11.6848 17.1449C11.6848 16.7249 11.6128 16.3559 11.4688 16.0379C11.3248 15.7139 11.1208 15.4619 10.8568 15.2819C10.5988 15.0959 10.2928 15.0029 9.93876 15.0029C9.58476 15.0029 9.27576 15.0959 9.01176 15.2819C8.75376 15.4619 8.55276 15.7139 8.40876 16.0379C8.27076 16.3559 8.20176 16.7249 8.20176 17.1449C8.20176 17.5649 8.27076 17.9369 8.40876 18.2609C8.55276 18.5789 8.75376 18.8279 9.01176 19.0079C9.27576 19.1879 9.58476 19.2779 9.93876 19.2779Z" fill="black" fill-opacity="0.94"/>
<path d="M14.3839 20.2499V14.0399H15.6529L17.4349 16.9019L19.2169 14.0399H20.4229V20.2499H19.2799V15.7229L17.4079 18.6929L15.5269 15.7139V20.2499H14.3839Z" fill="black" fill-opacity="0.94"/>
<path d="M22.2735 20.2499V14.0399H23.5425L25.3245 16.9019L27.1065 14.0399H28.3125V20.2499H27.1695V15.7229L25.2975 18.6929L23.4165 15.7139V20.2499H22.2735Z" fill="black" fill-opacity="0.94"/>
<path d="M32.4852 20.3669C31.9992 20.3669 31.5702 20.2709 31.1982 20.0789C30.8322 19.8809 30.5442 19.5839 30.3342 19.1879C30.1242 18.7919 30.0192 18.2909 30.0192 17.6849V14.0399H31.1982V17.7119C31.1982 18.2879 31.3182 18.6929 31.5582 18.9269C31.8042 19.1609 32.1132 19.2779 32.4852 19.2779C32.8572 19.2779 33.1602 19.1609 33.3942 18.9269C33.6342 18.6929 33.7542 18.2879 33.7542 17.7119V14.0399H34.9242V17.6849C34.9242 18.2909 34.8192 18.7919 34.6092 19.1879C34.4052 19.5839 34.1202 19.8809 33.7542 20.0789C33.3882 20.2709 32.9652 20.3669 32.4852 20.3669Z" fill="black" fill-opacity="0.94"/>
<path d="M36.629 20.2499V14.0399H37.826L40.553 18.4499V14.0399H41.669V20.2499H40.472L37.745 15.8399V20.2499H36.629Z" fill="black" fill-opacity="0.94"/>
<path d="M43.5167 20.2499V14.0399H44.6957V20.2499H43.5167Z" fill="black" fill-opacity="0.94"/>
<path d="M47.851 20.2499V15.1199H46.06V14.0399H50.821V15.1199H49.021V20.2499H47.851Z" fill="black" fill-opacity="0.94"/>
<path d="M53.8477 20.2499V17.6489L51.6607 14.0399H53.0107L54.4777 16.6499L55.9447 14.0399H57.2047L55.0177 17.6489V20.2499H53.8477Z" fill="black" fill-opacity="0.94"/>
</svg>
