<svg width="98" height="24" viewBox="0 0 98 24" fill="none" xmlns="http://www.w3.org/2000/svg">
<g clip-path="url(#clip0_2915_3804)">
<path fill-rule="evenodd" clip-rule="evenodd" d="M24.0525 13.3349L28.0357 8.5536H24.7807L21.9947 12.1069V5.16931H19.6036V18.7537H21.9947V14.5639L25.4196 18.7537H28.6732L24.0525 13.3349ZM42.363 16.5909C42.6678 16.5909 42.9312 16.4812 43.1395 16.3401L44.6702 18.3709C43.9393 18.8024 43.0439 19.0128 42.3982 19.0128C40.6668 19.0128 38.9458 17.6526 38.9462 15.375V10.9744H37.718V8.55338H38.9462V6.0119H41.2683V8.55338H43.254V10.9744H41.2683V15.3395C41.2683 16.3023 41.9838 16.5909 42.363 16.5909ZM2.42847 8.43125H4.01333C5.10402 8.43125 5.99588 9.31542 5.99588 10.405C5.99588 11.4973 5.10402 12.381 4.01333 12.381H2.42847V8.43125ZM2.42847 18.7536V14.802H4.14634L7.11993 18.7536H10.1603L6.5667 13.9853C7.6867 13.1838 8.42209 11.8807 8.42209 10.405C8.42209 7.98085 6.44496 6.01204 4.01333 6.01204H0V18.7536H2.42847ZM56.1958 12.7619V18.7537H53.8737V8.55369H56.1958V8.93307C56.1958 8.93307 57.0272 8.30287 58.1693 8.30287C60.6361 8.30287 62.3228 10.3031 62.3228 12.7619V18.7537H60.0008V12.7619C60.0008 11.6377 59.2257 10.6888 58.0985 10.6888C56.9704 10.6888 56.1958 11.6377 56.1958 12.7619ZM13.7698 16.5479C12.4672 16.5479 11.5136 15.2691 11.5136 13.6541C11.5136 12.0399 12.4672 10.7611 13.7698 10.7611C15.0738 10.7611 15.9931 12.0399 15.9931 13.6541C15.9931 15.2691 15.0738 16.5479 13.7698 16.5479ZM15.9575 8.55359V9.00624C15.2573 8.56168 14.6296 8.30322 13.7698 8.30322C11.1281 8.30322 9.12118 10.7044 9.12118 13.6541C9.12118 16.6041 11.1281 19.004 13.7698 19.004C14.6296 19.004 15.2573 18.7469 15.9575 18.3014V18.7536H18.2796V8.55359H15.9575ZM34.5587 8.55373V14.5456C34.5587 15.6698 33.7841 16.6187 32.656 16.6187C31.5287 16.6187 30.7537 15.6698 30.7537 14.5456V8.55373H28.4316V14.5456C28.4316 17.0043 30.1184 19.0042 32.5852 19.0042C33.7273 19.0042 34.5587 18.3744 34.5587 18.3744V18.7538H36.8808V8.55373H34.5587ZM50.5304 12.3372H46.348C46.8367 9.94808 50.0777 9.81099 50.5304 12.3372ZM43.8879 13.6538C43.8879 10.6493 45.8155 8.29482 48.5032 8.29482C51.1454 8.29482 53.5216 10.7041 52.9489 14.368L46.2605 14.3662C46.5658 16.6973 49.2093 17.8804 50.7951 15.5493L52.8461 16.7301C51.5277 18.5947 49.9587 19.0136 48.7341 19.0136C46.3074 19.0136 43.8879 16.8128 43.8879 13.6538Z" fill="#0C9BFF"/>
<path fill-rule="evenodd" clip-rule="evenodd" d="M50.1706 20.665H12.4649L15.4682 23.6592L50.1706 20.665Z" fill="#0C9BFF"/>
<path fill-rule="evenodd" clip-rule="evenodd" d="M78.4855 9.20636V18.4733C78.4855 18.6283 78.6113 18.7537 78.7668 18.7537H81.4397C81.5948 18.7537 81.7206 18.6283 81.7206 18.4733V9.20636C81.7206 9.05129 81.5948 8.92588 81.4397 8.92588H78.7668C78.6113 8.92588 78.4855 9.05129 78.4855 9.20636ZM78.7709 7.51265C79.1257 7.86011 79.5703 8.03407 80.1032 8.03407C80.6362 8.03407 81.0799 7.86011 81.4352 7.51265C81.7904 7.16429 81.9681 6.73771 81.9681 6.23157C81.9681 5.72588 81.7904 5.29886 81.4352 4.95095C81.0799 4.60303 80.6362 4.42908 80.1032 4.42908C79.5703 4.42908 79.1257 4.60303 78.7709 4.95095C78.4156 5.29886 78.2379 5.72588 78.2379 6.23157C78.2379 6.73771 78.4156 7.16429 78.7709 7.51265ZM73.677 18.4861L77.3336 6.91418C77.3751 6.78293 77.2768 6.64898 77.1388 6.64898H74.3984C74.237 6.64898 74.0958 6.75686 74.0534 6.91193L71.7819 15.22C71.7616 15.2951 71.6547 15.2951 71.634 15.22L69.3629 6.91193C69.3205 6.75686 69.1794 6.64898 69.0175 6.64898H66.1062C65.9682 6.64898 65.8699 6.78293 65.9114 6.91418L69.5681 18.4861C69.6185 18.6452 69.7664 18.7536 69.9337 18.7536H73.3113C73.4786 18.7536 73.6265 18.6452 73.677 18.4861ZM83.246 18.4733V5.56317C83.246 5.40854 83.3718 5.28313 83.5273 5.28313H86.2002C86.3553 5.28313 86.4811 5.40854 86.4811 5.56317V12.3326C86.4811 12.4207 86.5956 12.4554 86.6452 12.3825L88.8185 9.15693C88.9158 9.01264 89.0791 8.92588 89.2536 8.92588H92.4382C92.5549 8.92588 92.6208 9.05939 92.5495 9.15153L89.3893 13.2438C89.2905 13.3714 89.2901 13.5494 89.3884 13.678L93.1032 18.5286C93.174 18.6207 93.1077 18.7538 92.9914 18.7538H89.575C89.401 18.7538 89.2382 18.6697 89.1372 18.529L86.6438 15.035C86.5933 14.964 86.4811 14.9995 86.4811 15.0867V18.4733C86.4811 18.6283 86.3553 18.7538 86.2002 18.7538H83.5273C83.3718 18.7538 83.246 18.6283 83.246 18.4733ZM94.0188 9.20636V18.4733C94.0188 18.6283 94.1446 18.7537 94.3002 18.7537H96.973C97.1281 18.7537 97.2539 18.6283 97.2539 18.4733V9.20636C97.2539 9.05129 97.1281 8.92588 96.973 8.92588H94.3002C94.1446 8.92588 94.0188 9.05129 94.0188 9.20636ZM94.3042 7.51265C94.6591 7.86011 95.1037 8.03407 95.6366 8.03407C96.1696 8.03407 96.6132 7.86011 96.9685 7.51265C97.3238 7.16429 97.5015 6.73771 97.5015 6.23157C97.5015 5.72588 97.3238 5.29886 96.9685 4.95095C96.6132 4.60303 96.1696 4.42908 95.6366 4.42908C95.1037 4.42908 94.6591 4.60303 94.3042 4.95095C93.9489 5.29886 93.7713 5.72588 93.7713 6.23157C93.7713 6.73771 93.9489 7.16429 94.3042 7.51265Z" fill="#0C9BFF"/>
</g>
<defs>
<clipPath id="clip0_2915_3804">
<rect width="97.5" height="24" fill="white"/>
</clipPath>
</defs>
</svg>
